<svg width="56" height="45" viewBox="0 0 56 45" fill="none" xmlns="http://www.w3.org/2000/svg">
    <circle cx="38.3434" cy="17.5822" r="16.7463" fill="#F79E1B"/>
    <circle cx="17.4103" cy="17.5822" r="16.7463" fill="url(#paint0_radial_269_503)"/>
    <path d="M6.81547 43.3284V40.155C6.81547 39.9819 6.80988 39.8061 6.79872 39.6274C6.78756 39.4488 6.77081 39.273 6.74848 39.0999H7.76163L7.84536 39.9372H7.74488C7.86211 39.647 8.04074 39.4209 8.28077 39.259C8.52638 39.0971 8.81665 39.0162 9.15157 39.0162C9.4865 39.0162 9.76281 39.0971 9.98051 39.259C10.2038 39.4153 10.3601 39.6609 10.4494 39.9959H10.3154C10.4327 39.6944 10.6252 39.4572 10.8932 39.2841C11.1611 39.1055 11.4681 39.0162 11.8142 39.0162C12.2887 39.0162 12.6432 39.1558 12.8776 39.4349C13.1121 39.714 13.2293 40.1494 13.2293 40.7411V43.3284H12.1826V40.7829C12.1826 40.448 12.1268 40.208 12.0152 40.0628C11.9035 39.9121 11.7249 39.8368 11.4793 39.8368C11.189 39.8368 10.9602 39.94 10.7927 40.1466C10.6252 40.3475 10.5415 40.6211 10.5415 40.9671V43.3284H9.49487V40.7829C9.49487 40.448 9.43905 40.208 9.32741 40.0628C9.21577 39.9121 9.03714 39.8368 8.79153 39.8368C8.50126 39.8368 8.27239 39.94 8.10493 40.1466C7.94305 40.3475 7.86211 40.6211 7.86211 40.9671V43.3284H6.81547ZM15.9791 43.4121C15.6107 43.4121 15.287 43.3256 15.0079 43.1525C14.7288 42.9739 14.5111 42.7199 14.3548 42.3906C14.1985 42.0612 14.1203 41.6677 14.1203 41.21C14.1203 40.7522 14.1985 40.3615 14.3548 40.0377C14.5111 39.7084 14.7288 39.4572 15.0079 39.2841C15.287 39.1055 15.6107 39.0162 15.9791 39.0162C16.3364 39.0162 16.649 39.1055 16.9169 39.2841C17.1905 39.4572 17.3719 39.6916 17.4612 39.9875H17.3691L17.4612 39.0999H18.466C18.4492 39.273 18.4325 39.4488 18.4157 39.6274C18.4046 39.8061 18.399 39.9819 18.399 40.155V43.3284H17.3607L17.3523 42.4576H17.4528C17.3635 42.7478 17.1821 42.9795 16.9086 43.1525C16.635 43.3256 16.3252 43.4121 15.9791 43.4121ZM16.2722 42.6083C16.6015 42.6083 16.8667 42.4938 17.0677 42.265C17.2686 42.0305 17.3691 41.6789 17.3691 41.21C17.3691 40.7411 17.2686 40.3922 17.0677 40.1633C16.8667 39.9345 16.6015 39.82 16.2722 39.82C15.9429 39.82 15.6777 39.9345 15.4768 40.1633C15.2758 40.3922 15.1753 40.7411 15.1753 41.21C15.1753 41.6789 15.273 42.0305 15.4684 42.265C15.6693 42.4938 15.9373 42.6083 16.2722 42.6083ZM21.0459 43.4121C20.683 43.4121 20.3481 43.3702 20.0411 43.2865C19.7397 43.1972 19.4857 43.0744 19.2791 42.9181L19.5722 42.2147C19.7843 42.3599 20.0188 42.4715 20.2755 42.5497C20.5323 42.6278 20.7919 42.6669 21.0542 42.6669C21.3333 42.6669 21.5399 42.6194 21.6739 42.5245C21.8134 42.4297 21.8832 42.3013 21.8832 42.1394C21.8832 42.011 21.8385 41.9105 21.7492 41.838C21.6655 41.7598 21.5287 41.7012 21.3389 41.6621L20.5016 41.503C20.1444 41.4249 19.8708 41.2909 19.6811 41.1011C19.4968 40.9113 19.4047 40.6629 19.4047 40.3559C19.4047 40.0935 19.4745 39.8619 19.6141 39.6609C19.7592 39.46 19.9629 39.3037 20.2253 39.192C20.4932 39.0748 20.8058 39.0162 21.1631 39.0162C21.4757 39.0162 21.7688 39.0581 22.0423 39.1418C22.3214 39.2255 22.5558 39.3511 22.7456 39.5186L22.4442 40.1968C22.2711 40.0573 22.073 39.9484 21.8497 39.8703C21.6264 39.7921 21.4087 39.753 21.1966 39.753C20.9063 39.753 20.6942 39.8061 20.5602 39.9121C20.4263 40.0126 20.3593 40.1438 20.3593 40.3057C20.3593 40.4285 20.3983 40.5317 20.4765 40.6155C20.5602 40.6936 20.6886 40.7522 20.8617 40.7913L21.699 40.9504C22.073 41.023 22.3549 41.1514 22.5447 41.3356C22.74 41.5142 22.8377 41.7598 22.8377 42.0724C22.8377 42.3515 22.7624 42.5915 22.6116 42.7925C22.4609 42.9934 22.2516 43.147 21.9837 43.253C21.7157 43.3591 21.4031 43.4121 21.0459 43.4121ZM25.5012 43.4121C24.9988 43.4121 24.6192 43.2809 24.3624 43.0186C24.1056 42.7562 23.9773 42.3627 23.9773 41.838V39.887H23.1651V39.0999H23.9773V38.0198L25.0239 37.7519V39.0999H26.1543V39.887H25.0239V41.771C25.0239 42.0612 25.0797 42.265 25.1914 42.3822C25.303 42.4994 25.4565 42.558 25.6519 42.558C25.7579 42.558 25.8473 42.5497 25.9198 42.5329C25.998 42.5162 26.0733 42.4938 26.1459 42.4659V43.2949C26.051 43.334 25.9449 43.3619 25.8277 43.3786C25.7161 43.4009 25.6072 43.4121 25.5012 43.4121ZM28.8674 43.4121C28.1584 43.4121 27.603 43.2167 27.2011 42.826C26.7992 42.4352 26.5982 41.8994 26.5982 41.2183C26.5982 40.7774 26.6848 40.3922 26.8578 40.0628C27.0309 39.7335 27.2709 39.4767 27.5779 39.2925C27.8905 39.1083 28.2533 39.0162 28.6664 39.0162C29.0739 39.0162 29.4144 39.1027 29.6879 39.2758C29.9614 39.4488 30.168 39.6916 30.3075 40.0042C30.4527 40.3168 30.5252 40.6825 30.5252 41.1011V41.3774H27.4439V40.8248H29.78L29.6377 40.942C29.6377 40.5513 29.554 40.2526 29.3865 40.0461C29.2246 39.8396 28.9874 39.7363 28.6748 39.7363C28.3287 39.7363 28.0607 39.8591 27.871 40.1047C27.6867 40.3503 27.5946 40.6936 27.5946 41.1346V41.2435C27.5946 41.7012 27.7063 42.0445 27.9296 42.2734C28.1584 42.4966 28.4794 42.6083 28.8925 42.6083C29.1325 42.6083 29.3558 42.5776 29.5623 42.5162C29.7744 42.4492 29.9754 42.3431 30.1652 42.198L30.475 42.9013C30.274 43.0632 30.034 43.1888 29.7549 43.2781C29.4758 43.3674 29.18 43.4121 28.8674 43.4121ZM31.4032 43.3284V40.1801C31.4032 40.0014 31.3976 39.82 31.3864 39.6358C31.3808 39.4516 31.3669 39.273 31.3446 39.0999H32.3577L32.4749 40.2554H32.3075C32.3633 39.9763 32.4554 39.7447 32.5838 39.5605C32.7178 39.3762 32.8796 39.2395 33.0694 39.1502C33.2592 39.0609 33.4658 39.0162 33.689 39.0162C33.7895 39.0162 33.8705 39.0218 33.9319 39.033C33.9933 39.0385 34.0547 39.0525 34.1161 39.0748L34.1077 39.9959C34.0016 39.9512 33.9095 39.9233 33.8314 39.9121C33.7588 39.901 33.6667 39.8954 33.5551 39.8954C33.315 39.8954 33.1113 39.9456 32.9438 40.0461C32.782 40.1466 32.6591 40.2861 32.5754 40.4648C32.4973 40.6434 32.4582 40.8471 32.4582 41.076V43.3284H31.4032ZM36.5758 43.4121C36.1404 43.4121 35.758 43.3228 35.4287 43.1442C35.1049 42.9655 34.8537 42.7115 34.6751 42.3822C34.4965 42.0473 34.4072 41.651 34.4072 41.1932C34.4072 40.7355 34.4965 40.3447 34.6751 40.021C34.8593 39.6972 35.1133 39.4488 35.4371 39.2758C35.7608 39.1027 36.1404 39.0162 36.5758 39.0162C36.8549 39.0162 37.1256 39.0609 37.388 39.1502C37.6559 39.2339 37.8736 39.3567 38.0411 39.5186L37.7229 40.2471C37.5722 40.1075 37.402 40.0042 37.2122 39.9372C37.028 39.8647 36.8465 39.8284 36.6679 39.8284C36.2939 39.8284 36.0009 39.9456 35.7887 40.1801C35.5822 40.4145 35.4789 40.755 35.4789 41.2016C35.4789 41.6482 35.5822 41.9915 35.7887 42.2315C36.0009 42.4715 36.2939 42.5915 36.6679 42.5915C36.841 42.5915 37.0196 42.558 37.2038 42.4911C37.3936 42.4241 37.5666 42.3208 37.7229 42.1812L38.0411 42.9013C37.8681 43.0632 37.6476 43.1888 37.3796 43.2781C37.1173 43.3674 36.8493 43.4121 36.5758 43.4121ZM40.4607 43.4121C40.0923 43.4121 39.7686 43.3256 39.4895 43.1525C39.2104 42.9739 38.9927 42.7199 38.8364 42.3906C38.6801 42.0612 38.6019 41.6677 38.6019 41.21C38.6019 40.7522 38.6801 40.3615 38.8364 40.0377C38.9927 39.7084 39.2104 39.4572 39.4895 39.2841C39.7686 39.1055 40.0923 39.0162 40.4607 39.0162C40.818 39.0162 41.1306 39.1055 41.3985 39.2841C41.6721 39.4572 41.8535 39.6916 41.9428 39.9875H41.8507L41.9428 39.0999H42.9476C42.9308 39.273 42.9141 39.4488 42.8973 39.6274C42.8862 39.8061 42.8806 39.9819 42.8806 40.155V43.3284H41.8423L41.8339 42.4576H41.9344C41.8451 42.7478 41.6637 42.9795 41.3902 43.1525C41.1166 43.3256 40.8068 43.4121 40.4607 43.4121ZM40.7538 42.6083C41.0832 42.6083 41.3483 42.4938 41.5493 42.265C41.7502 42.0305 41.8507 41.6789 41.8507 41.21C41.8507 40.7411 41.7502 40.3922 41.5493 40.1633C41.3483 39.9345 41.0832 39.82 40.7538 39.82C40.4245 39.82 40.1593 39.9345 39.9584 40.1633C39.7574 40.3922 39.6569 40.7411 39.6569 41.21C39.6569 41.6789 39.7546 42.0305 39.95 42.265C40.1509 42.4938 40.4189 42.6083 40.7538 42.6083ZM44.0119 43.3284V40.1801C44.0119 40.0014 44.0064 39.82 43.9952 39.6358C43.9896 39.4516 43.9757 39.273 43.9533 39.0999H44.9665L45.0837 40.2554H44.9162C44.9721 39.9763 45.0642 39.7447 45.1926 39.5605C45.3265 39.3762 45.4884 39.2395 45.6782 39.1502C45.868 39.0609 46.0745 39.0162 46.2978 39.0162C46.3983 39.0162 46.4792 39.0218 46.5406 39.033C46.602 39.0385 46.6634 39.0525 46.7248 39.0748L46.7165 39.9959C46.6104 39.9512 46.5183 39.9233 46.4401 39.9121C46.3676 39.901 46.2755 39.8954 46.1638 39.8954C45.9238 39.8954 45.7201 39.9456 45.5526 40.0461C45.3907 40.1466 45.2679 40.2861 45.1842 40.4648C45.106 40.6434 45.067 40.8471 45.067 41.076V43.3284H44.0119ZM48.8831 43.4121C48.5147 43.4121 48.1882 43.3256 47.9035 43.1525C47.6244 42.9739 47.4067 42.7199 47.2504 42.3906C47.0941 42.0612 47.0159 41.6677 47.0159 41.21C47.0159 40.7522 47.0941 40.3615 47.2504 40.0377C47.4067 39.7084 47.6244 39.4572 47.9035 39.2841C48.1882 39.1055 48.5147 39.0162 48.8831 39.0162C49.2348 39.0162 49.5446 39.1027 49.8126 39.2758C50.0861 39.4432 50.2675 39.6721 50.3568 39.9624H50.248V37.1657H51.2946V43.3284H50.2647V42.4324H50.3652C50.2759 42.7339 50.0945 42.9739 49.8209 43.1525C49.553 43.3256 49.2404 43.4121 48.8831 43.4121ZM49.1762 42.6083C49.5055 42.6083 49.7707 42.4938 49.9716 42.265C50.1726 42.0305 50.2731 41.6789 50.2731 41.21C50.2731 40.7411 50.1726 40.3922 49.9716 40.1633C49.7707 39.9345 49.5055 39.82 49.1762 39.82C48.8469 39.82 48.5789 39.9345 48.3724 40.1633C48.1714 40.3922 48.0709 40.7411 48.0709 41.21C48.0709 41.6789 48.1714 42.0305 48.3724 42.265C48.5789 42.4938 48.8469 42.6083 49.1762 42.6083Z" fill="white"/>
    <defs>
        <radialGradient id="paint0_radial_269_503" cx="0" cy="0" r="1" gradientUnits="userSpaceOnUse" gradientTransform="translate(34.1566 17.5822) rotate(-180) scale(22.6772)">
            <stop stop-color="#EB001B" stop-opacity="0.92"/>
            <stop offset="0.110299" stop-color="#EB001B" stop-opacity="0.803455"/>
            <stop offset="1" stop-color="#EB001B"/>
        </radialGradient>
    </defs>
</svg>
