<svg width="50" height="50" viewBox="0 0 50 50" fill="none" xmlns="http://www.w3.org/2000/svg">
    <path fill-rule="evenodd" clip-rule="evenodd" d="M47.5334 8.89602L35.2205 8.89282C35.219 8.89282 35.2173 8.89282 35.2173 8.89282C35.2078 8.89282 35.1985 8.89453 35.1892 8.89453C33.4977 8.94677 31.391 10.3144 31.0073 12.0007L25.1844 37.9731C24.8007 39.6753 25.8445 41.0603 27.5238 41.0858H40.459C42.1126 41.0033 43.7195 39.6514 44.0967 37.9842L49.9198 12.0116C50.3096 10.2922 49.2406 8.89602 47.5334 8.89602Z" fill="#01798A"/>
    <path fill-rule="evenodd" clip-rule="evenodd" d="M25.1845 37.9732L31.0074 12.0008C31.3911 10.3144 33.4978 8.94679 35.1893 8.89455L30.2937 8.89136L21.4734 8.88965C19.7771 8.92462 17.643 10.3018 17.2594 12.0008L11.4348 37.9732C11.0497 39.6753 12.0951 41.0603 13.7732 41.0858H27.5239C25.8446 41.0603 24.8008 39.6753 25.1845 37.9732Z" fill="#024381"/>
    <path fill-rule="evenodd" clip-rule="evenodd" d="M11.4347 37.9732L17.2593 12.0008C17.6429 10.3019 19.7771 8.92467 21.4733 8.8897L10.1739 8.88672C8.46818 8.88672 6.28127 10.2797 5.89146 12.0008L0.0668431 37.9732C0.0313973 38.1317 0.0117325 38.2871 0 38.4391V38.9209C0.114022 40.1617 1.05404 41.0652 2.40527 41.0858H13.7732C12.095 41.0604 11.0496 39.6753 11.4347 37.9732Z" fill="#DD0228"/>
    <path fill-rule="evenodd" clip-rule="evenodd" d="M21.7116 27.815H21.9255C22.122 27.815 22.2542 27.7485 22.3162 27.6169L22.8718 26.7786H24.3599L24.0496 27.33H25.8337L25.6074 28.1748H23.4844C23.2399 28.5456 22.9389 28.7199 22.577 28.6993H21.4712L21.7116 27.815ZM21.4673 29.0258H25.3762L25.127 29.9435H23.555L23.3152 30.8292H24.8449L24.5957 31.7468H23.066L22.7106 33.0557C22.6226 33.2745 22.7383 33.3729 23.0558 33.3506H24.3025L24.0715 34.2033H21.678C21.2243 34.2033 21.0687 33.9417 21.211 33.4172L21.6653 31.7468H20.6875L20.9359 30.8292H21.9138L22.1535 29.9435H21.2188L21.4673 29.0258ZM27.7063 26.7723L27.6447 27.3095C27.6447 27.3095 28.3821 26.7515 29.0517 26.7515H31.5263L30.58 30.2047C30.5015 30.5994 30.165 30.7958 29.5706 30.7958H26.7659L26.1089 33.2206C26.071 33.3505 26.1245 33.4171 26.266 33.4171H26.8179L26.6151 34.1698H25.212C24.6735 34.1698 24.4495 34.0066 24.5384 33.6787L26.3949 26.7723H27.7063ZM29.8018 27.7484H27.5931L27.3289 28.6802C27.3289 28.6802 27.6968 28.4125 28.3114 28.4029C28.9244 28.3933 29.6241 28.4029 29.6241 28.4029L29.8018 27.7484ZM29.0016 29.91C29.1649 29.9324 29.2563 29.8672 29.2673 29.7135L29.4024 29.2223H27.1904L27.0049 29.91H29.0016ZM27.5096 31.0257H28.7846L28.7609 31.5818H29.1004C29.272 31.5818 29.357 31.5265 29.357 31.4172L29.4575 31.0574H30.5172L30.3757 31.5818C30.2559 32.0193 29.9387 32.2475 29.423 32.2698H28.7438L28.7406 33.2206C28.7281 33.3728 28.8648 33.4505 29.1461 33.4505H29.7845L29.5784 34.2032H28.0473C27.6181 34.2238 27.4076 34.0177 27.4121 33.5804L27.5096 31.0257Z" fill="white"/>
    <path fill-rule="evenodd" clip-rule="evenodd" d="M12.0587 22.1715C11.8857 23.0257 11.4848 23.6818 10.863 24.1477C10.2468 24.6057 9.45201 24.8354 8.47896 24.8354C7.56323 24.8354 6.89189 24.6009 6.46348 24.1302C6.16636 23.7958 6.01855 23.3711 6.01855 22.8576C6.01855 22.6453 6.04377 22.4171 6.09409 22.1715L7.13085 17.1321H8.69668L7.67403 22.1145C7.64255 22.2524 7.62999 22.3807 7.63164 22.4964C7.62999 22.7516 7.69285 22.9608 7.82019 23.1239C8.00569 23.3665 8.30676 23.4868 8.72574 23.4868C9.20754 23.4868 9.60453 23.3681 9.91265 23.1287C10.2208 22.891 10.422 22.5535 10.5124 22.1145L11.5383 17.1321H13.0962L12.0587 22.1715Z" fill="white"/>
    <path fill-rule="evenodd" clip-rule="evenodd" d="M18.6349 20.1891H19.8613L18.9007 24.6867H17.6768L18.6349 20.1891ZM19.021 18.5505H20.2582L20.0271 19.6422H18.7899L19.021 18.5505Z" fill="white"/>
    <path fill-rule="evenodd" clip-rule="evenodd" d="M20.9467 24.3443C20.6259 24.0353 20.464 23.6185 20.4624 23.0892C20.4624 22.9988 20.4679 22.8959 20.4797 22.7833C20.4916 22.6692 20.5065 22.5582 20.5277 22.4553C20.6731 21.7247 20.9828 21.1447 21.4599 20.7168C21.9363 20.2873 22.511 20.0718 23.1838 20.0718C23.7348 20.0718 24.1718 20.2271 24.4918 20.5377C24.8116 20.85 24.972 21.2714 24.972 21.8072C24.972 21.899 24.965 22.0052 24.9532 22.1193C24.939 22.235 24.9218 22.3459 24.902 22.4553C24.7598 23.1747 24.451 23.7484 23.9738 24.1685C23.4966 24.5916 22.9236 24.8022 22.2554 24.8022C21.7021 24.8022 21.2666 24.6501 20.9467 24.3443ZM23.2836 23.4537C23.4998 23.2176 23.6546 22.8593 23.749 22.3824C23.7631 22.308 23.7756 22.2303 23.7834 22.1526C23.7913 22.0765 23.7944 22.0052 23.7944 21.9402C23.7944 21.6629 23.7244 21.4474 23.5838 21.2952C23.4439 21.1415 23.2451 21.0655 22.9881 21.0655C22.6484 21.0655 22.3718 21.1858 22.155 21.4268C21.9362 21.6677 21.7814 22.0322 21.6839 22.5171C21.6706 22.5916 21.6596 22.6661 21.6494 22.739C21.6416 22.8134 21.6393 22.8832 21.6408 22.9465C21.6408 23.2223 21.7108 23.4347 21.8514 23.5852C21.9912 23.7358 22.1892 23.8102 22.4496 23.8102C22.7908 23.8102 23.0674 23.6914 23.2836 23.4537Z" fill="white"/>
    <path fill-rule="evenodd" clip-rule="evenodd" d="M32.9285 27.853L33.2242 26.8039H34.7192L34.6547 27.1889C34.6547 27.1889 35.4187 26.8039 35.9689 26.8039C36.5193 26.8039 37.8176 26.8039 37.8176 26.8039L37.5238 27.853H37.2329L35.8384 32.8006H36.1292L35.8526 33.7832H35.5617L35.4407 34.2095H33.9929L34.1137 33.7832H31.2573L31.5357 32.8006H31.8219L33.2177 27.853H32.9285ZM34.5416 27.8531L34.161 29.1921C34.161 29.1921 34.8121 28.9402 35.3732 28.8689C35.4972 28.4013 35.6592 27.8531 35.6592 27.8531L34.5416 27.8531ZM33.9849 29.8197L33.6031 31.2222C33.6031 31.2222 34.3246 30.864 34.8197 30.8339C34.9627 30.2918 35.1059 29.8197 35.1059 29.8197H33.9849ZM34.2647 32.8006L34.5509 31.7832H33.4349L33.1472 32.8006H34.2647ZM37.8806 26.739H39.2861L39.3458 27.2618C39.3365 27.3949 39.4149 27.4585 39.5816 27.4585H39.8299L39.5787 28.3443H38.5456C38.1511 28.3648 37.9483 28.2128 37.9294 27.8847L37.8806 26.739ZM37.4688 28.6391H42.0215L41.7543 29.59H40.3048L40.0563 30.4741H41.5043L41.2355 31.4235H39.6227L39.2578 31.9798H40.0472L40.2295 33.0938C40.2513 33.2048 40.3488 33.2587 40.5155 33.2587H40.7606L40.503 34.1761H39.6351C39.1854 34.1984 38.953 34.0463 38.9339 33.7183L38.7248 32.7009L38.0064 33.7832C37.8366 34.0891 37.5756 34.2317 37.2236 34.2095H35.8982L36.1561 33.2918H36.5696C36.7394 33.2918 36.8807 33.2158 37.0081 33.0621L38.1323 31.4235H36.6828L36.9514 30.4741H38.5236L38.7736 29.59H37.1999L37.4688 28.6391Z" fill="white"/>
    <path fill-rule="evenodd" clip-rule="evenodd" d="M13.5011 20.1876H14.607L14.4805 20.8373L14.6392 20.6519C14.9977 20.2653 15.4331 20.0735 15.9472 20.0735C16.4126 20.0735 16.7482 20.2098 16.9589 20.4839C17.1664 20.7581 17.223 21.1369 17.1248 21.6234L16.5155 24.6883H15.3789L15.9291 21.9103C15.9858 21.6234 15.9701 21.4095 15.8827 21.2715C15.7964 21.1337 15.6312 21.0656 15.3931 21.0656C15.1007 21.0656 14.8546 21.1574 14.6542 21.3397C14.4529 21.5236 14.3201 21.7788 14.2548 22.1036L13.7479 24.6883H12.6089L13.5011 20.1876Z" fill="white"/>
    <path fill-rule="evenodd" clip-rule="evenodd" d="M26.184 20.1876H27.2908L27.1652 20.8373L27.3221 20.6519C27.6809 20.2653 28.1179 20.0735 28.6304 20.0735C29.0957 20.0735 29.432 20.2098 29.641 20.4839C29.8473 20.7581 29.9069 21.1369 29.8062 21.6234L29.1994 24.6883H28.0612L28.6116 21.9103C28.668 21.6234 28.6524 21.4095 28.5659 21.2715C28.4762 21.1337 28.3142 21.0656 28.0771 21.0656C27.7845 21.0656 27.5394 21.1574 27.3365 21.3397C27.1352 21.5236 27.0017 21.7788 26.9389 22.1036L26.4295 24.6883H25.292L26.184 20.1876" fill="white"/>
    <path fill-rule="evenodd" clip-rule="evenodd" d="M31.6551 17.3984H34.8685C35.4864 17.3984 35.9642 17.5396 36.2927 17.8168C36.6197 18.0974 36.7834 18.4999 36.7834 19.0245V19.0402C36.7834 19.14 36.7768 19.2526 36.7675 19.3746C36.7517 19.495 36.7311 19.617 36.7047 19.7439C36.5632 20.438 36.2345 20.9959 35.7269 21.419C35.2173 21.8405 34.6138 22.0529 33.919 22.0529H32.1958L31.663 24.6884H30.1709L31.6551 17.3984ZM32.4582 20.7851H33.8875C34.26 20.7851 34.5555 20.6978 34.771 20.5252C34.9848 20.3509 35.1263 20.0847 35.2048 19.7234C35.2173 19.6566 35.2251 19.5965 35.2346 19.5411C35.2395 19.4888 35.2456 19.4364 35.2456 19.3859C35.2456 19.1274 35.1547 18.9404 34.9721 18.8232C34.7898 18.7042 34.5038 18.6473 34.1075 18.6473H32.8938L32.4582 20.7851Z" fill="white"/>
    <path fill-rule="evenodd" clip-rule="evenodd" d="M43.4617 25.5582C42.99 26.5692 42.5406 27.1586 42.2766 27.4328C42.0122 27.7039 41.4889 28.3347 40.228 28.287L40.3365 27.5154C41.3975 27.1857 41.9714 25.7006 42.2984 25.0431L41.9085 20.2001L42.7292 20.189H43.4177L43.4918 23.227L44.7822 20.189H46.0888L43.4617 25.5582Z" fill="white"/>
    <path fill-rule="evenodd" clip-rule="evenodd" d="M39.808 20.5552L39.2889 20.915C38.7466 20.4872 38.2514 20.2225 37.2958 20.6693C35.9939 21.2778 34.9061 25.945 38.4905 24.4078L38.6948 24.6518L40.105 24.6883L41.031 20.4474L39.808 20.5552ZM39.0061 22.8737C38.7796 23.5473 38.2736 23.9925 37.8775 23.8658C37.4813 23.7422 37.3398 23.0923 37.5693 22.4173C37.7956 21.7421 38.3049 21.2985 38.6979 21.4252C39.0941 21.5488 39.2371 22.1986 39.0061 22.8737Z" fill="white"/>
</svg>
