<svg width="64" height="64" viewBox="0 0 92 92" fill="none" xmlns="http://www.w3.org/2000/svg">
    <path d="M61.2893 77.1465L68.0341 85.7488C75.755 81.4575 82.1031 75.0009 86.2566 67.1984L78.8605 53.2127L89.466 59.5716C90.8462 55.2088 91.6015 50.5663 91.6015 45.7483C91.6015 43.7652 91.4582 41.8146 91.2171 39.8965L76.6991 27.9457L88.5613 29.3437C86.4258 23.791 83.2354 18.7649 79.2381 14.493L65.6378 11.4761L73.8151 9.56447C66.0677 3.57612 56.354 0 45.8008 0C35.2474 0 25.5338 3.57612 17.7864 9.56447L25.9635 11.4761L12.3633 14.493C8.36586 18.7584 5.17578 23.791 3.04036 29.3437L14.9023 27.9457L0.384114 39.8965C0.136719 41.8146 0 43.7652 0 45.7483C0 50.5663 0.748699 55.2088 2.13542 59.5716L12.7409 53.2127L5.34505 67.1984C9.49869 75.0009 15.8463 81.4575 23.5677 85.7488L30.3125 77.1465V88.8115C35.1498 90.5475 40.3711 91.5033 45.8073 91.5033C51.2435 91.5033 56.4648 90.5536 61.3022 88.8115V77.1465H61.2893Z" fill="#14B8A6"/>
    <path d="M78.8674 53.2193L82.2853 55.2675L76.6993 50.6705L88.5614 52.0685C86.4259 46.5157 83.2356 41.4897 79.2383 37.2178L65.638 34.2009L73.8152 32.2893C66.0679 26.3009 56.3542 22.7248 45.801 22.7248C35.2476 22.7248 25.534 26.3009 17.7866 32.2893L25.9637 34.2009L12.3634 37.2178C8.36605 41.4832 5.17594 46.5157 3.04053 52.0685L14.9025 50.6705L9.31657 55.2675L12.7345 53.2193L5.3387 67.2053C7.12909 70.5604 9.32309 73.6681 11.8556 76.4642L12.728 75.9372L12.2332 76.8739C15.508 80.3913 19.3231 83.4018 23.5613 85.7557L30.3061 77.1534V88.8179C35.1434 90.5538 40.3647 91.5096 45.801 91.5096C51.2371 91.5096 56.4587 90.5605 61.2956 88.8179V77.1534L68.0404 85.7557C72.2788 83.4018 76.094 80.3913 79.3686 76.8739L78.8741 75.9372L79.7463 76.4642C82.2785 73.6681 84.4792 70.5666 86.2629 67.2053L78.8674 53.2193Z" fill="#0D9488"/>
    <path d="M56.3935 67.4848C55.2866 68.6875 53.9649 70.1311 52.6368 71.5746C48.9975 75.5342 42.7475 75.5342 39.1147 71.5746L35.202 67.3158C33.7436 65.7292 34.2254 63.1676 36.1785 62.2702C40.0977 60.4624 46.9207 58.7203 55.3126 62.3937C57.3241 63.2715 57.8777 65.8656 56.3935 67.4848Z" fill="#14B8A6"/>
    <path d="M70.651 40.9822L66.0153 32.5296C65.8855 32.289 65.8917 31.9899 66.035 31.7558L69.186 26.6517C69.5569 26.047 68.9775 25.2993 68.3329 25.5529L63.4831 27.51C62.8902 27.7506 62.3175 27.1134 62.5777 26.5087L64.2384 22.679C64.4986 22.0678 63.9192 21.4371 63.3268 21.6842L56.4191 24.5646C55.8592 24.7987 55.2993 24.246 55.4816 23.6478L56.7641 19.415C56.9726 18.7323 56.2235 18.1666 55.6704 18.5892L46.2108 25.7349C45.9633 25.9235 45.6248 25.9235 45.3774 25.7349L35.9178 18.5892C35.3644 18.1731 34.6157 18.7323 34.824 19.415L36.1066 23.6478C36.2889 24.246 35.7225 24.7921 35.1691 24.5646L28.2616 21.6842C27.6691 21.4371 27.0897 22.0743 27.3501 22.679L29.0103 26.5087C29.2707 27.1134 28.6978 27.7506 28.1053 27.51L23.2551 25.5529C22.6105 25.2928 22.0311 26.047 22.4022 26.6517L25.5532 31.7558C25.6964 31.9899 25.703 32.289 25.5727 32.5296L20.9309 40.9822C20.7485 41.3203 20.8397 41.7429 21.1457 41.964L32.1938 49.8965C32.4477 50.0786 32.5649 50.4166 32.4738 50.7288L28.4894 63.0759C28.4113 63.3363 28.4829 63.6226 28.6782 63.8173L30.0193 64.9421C33.6587 67.9981 38.8996 68.2192 42.7863 65.482C44.466 64.2983 45.8006 63.3425 45.8006 63.3425C45.8006 63.3425 47.1352 64.2983 48.8149 65.482C52.6952 68.2125 57.9426 67.9919 61.5752 64.9421L62.9166 63.8173C63.1054 63.6226 63.1768 63.3363 63.1054 63.0759L59.121 50.7288C59.03 50.4166 59.1407 50.0851 59.4009 49.8965L70.4493 41.964C70.7421 41.7429 70.8331 41.3138 70.651 40.9822Z" fill="white"/>
    <path d="M51.0547 57.0687C52.2982 56.8869 52.7539 55.3391 51.8033 54.5133C50.2409 53.1479 47.6106 52.0751 43.8021 52.8033C41.9792 53.1544 40.664 53.9867 39.7526 54.8189C38.8281 55.6707 39.3229 57.2051 40.5729 57.355L43.2877 57.6799C43.8281 57.745 44.2903 58.1025 44.4857 58.6099L45.0521 60.0793C45.3581 60.879 46.4908 60.8661 46.7838 60.0664L47.3958 58.3888C47.5781 57.8814 48.0273 57.5172 48.5612 57.4391L51.0547 57.0687Z" fill="#171314"/>
    <path d="M41.2302 46.6978L39.3488 41.9968C38.9581 41.028 38.0857 40.3323 37.0506 40.1697L29.173 38.9213C28.4698 38.8108 28.1508 39.7666 28.7758 40.0982L31.6534 41.6392C31.6534 41.6392 32.5454 46.9058 38.1834 45.1243L40.1691 47.348C40.6443 47.8812 41.4972 47.3545 41.2302 46.6978Z" fill="#171314"/>
    <path d="M50.3514 46.6978L52.233 41.9968C52.6236 41.028 53.496 40.3323 54.5312 40.1697L62.4087 38.9213C63.1117 38.8108 63.4309 39.7666 62.806 40.0982L59.9281 41.6392C59.9281 41.6392 59.0363 46.9058 53.3983 45.1243L51.4127 47.348C50.9374 47.8812 50.091 47.3545 50.3514 46.6978Z" fill="#171314"/>
</svg>
