<svg width="24" height="24" viewBox="0 0 24 24" fill="none" xmlns="http://www.w3.org/2000/svg">
    <path fill-rule="evenodd" clip-rule="evenodd" d="M21.0005 6.6738C21.0005 8.7024 19.3553 10.3476 17.3267 10.3476C15.2981 10.3476 13.6538 8.7024 13.6538 6.6738C13.6538 4.6452 15.2981 3 17.3267 3C19.3553 3 21.0005 4.6452 21.0005 6.6738Z" stroke="#452F02" stroke-width="1.5" stroke-linecap="round" stroke-linejoin="round"/>
    <path fill-rule="evenodd" clip-rule="evenodd" d="M21.0005 17.2619C21.0005 19.2905 19.3553 20.9348 17.3267 20.9348C15.2981 20.9348 13.6538 19.2905 13.6538 17.2619C13.6538 15.2333 15.2981 13.5881 17.3267 13.5881C19.3553 13.5881 21.0005 15.2333 21.0005 17.2619Z" stroke="#452F02" stroke-width="1.5" stroke-linecap="round" stroke-linejoin="round"/>
    <path fill-rule="evenodd" clip-rule="evenodd" d="M10.3467 17.2619C10.3467 19.2905 8.7024 20.9348 6.6729 20.9348C4.6452 20.9348 3 19.2905 3 17.2619C3 15.2333 4.6452 13.5881 6.6729 13.5881C8.7024 13.5881 10.3467 15.2333 10.3467 17.2619Z" stroke="#452F02" stroke-width="1.5" stroke-linecap="round" stroke-linejoin="round"/>
    <path d="M5.5832 9.70841V7.41674H7.41653V9.70841C7.41653 9.96049 7.62278 10.1667 7.87486 10.1667H9.24986C9.50194 10.1667 9.70819 9.96049 9.70819 9.70841V6.50008H10.4874C10.6982 6.50008 10.799 6.23883 10.6386 6.10133L6.80695 2.65008C6.63278 2.49424 6.36695 2.49424 6.19278 2.65008L2.36111 6.10133C2.20528 6.23883 2.30153 6.50008 2.51236 6.50008H3.29153V9.70841C3.29153 9.96049 3.49778 10.1667 3.74986 10.1667H5.12486C5.37695 10.1667 5.5832 9.96049 5.5832 9.70841Z" fill="#452F02"/>
</svg>
